<?xml version="1.0" encoding="UTF-8"?>
<!DOCTYPE svg PUBLIC "-//W3C//DTD SVG 1.1//EN" "http://www.w3.org/Graphics/SVG/1.1/DTD/svg11.dtd">
<svg version="1.1" xmlns="http://www.w3.org/2000/svg" xmlns:xlink="http://www.w3.org/1999/xlink" x="0" y="0" width="878.5" height="765.732" viewBox="0, 0, 878.5, 765.732">
  <g id="Layer_1">
    <path d="M799.222,0 C842.874,0 878.5,35.127 878.5,78.756 L878.5,686.976 C878.5,730.606 842.874,765.732 799.222,765.732 L79.279,765.732 C35.626,765.732 0,730.606 0,686.976 L0,78.756 C0,35.127 35.626,0 79.279,0 L799.222,0 z M794.5,84 L84,84 L84,681.732 L794.5,681.732 L794.5,84 z" fill="#FFFFFF"/>
  </g>
  <g id="Layer_2">
    <g>
      <path d="M261.719,245.34 L301.724,205.335 C307.191,199.867 316.469,200.281 322.447,206.259 L615.857,499.669 C621.835,505.647 622.249,514.925 616.781,520.392 L576.776,560.398 C571.309,565.865 562.031,565.451 556.053,559.473 L262.643,266.063 C256.665,260.085 256.251,250.807 261.719,245.34 z" fill="#FFFFFF"/>
      <path d="M576.776,205.335 L616.781,245.34 C622.249,250.807 621.835,260.085 615.857,266.063 L322.447,559.473 C316.469,565.451 307.191,565.865 301.724,560.398 L261.719,520.392 C256.251,514.925 256.665,505.647 262.643,499.669 L556.053,206.259 C562.031,200.281 571.309,199.867 576.776,205.335 z" fill="#FFFFFF"/>
    </g>
  </g>
</svg>
