<?xml version="1.0" encoding="UTF-8"?>
<!DOCTYPE svg PUBLIC "-//W3C//DTD SVG 1.1//EN" "http://www.w3.org/Graphics/SVG/1.1/DTD/svg11.dtd">
<svg version="1.1" xmlns="http://www.w3.org/2000/svg" xmlns:xlink="http://www.w3.org/1999/xlink" x="0" y="0" width="379.312" height="797.404" viewBox="0, 0, 379.312, 797.404">
  <g id="Layer_1">
    <path d="M215,143.747 L215,154.747 C208.938,153.856 203.049,151.893 197,150.831 C182.002,148.198 166.947,146.355 152,143.347 C136.261,140.18 123.066,138.362 114.956,122.577 C109.289,111.548 105.994,99.184 101.255,87.747 C97.098,77.717 91.506,68.037 93.213,56.747 C94.657,47.197 101.653,39.004 104.215,29.747 C106.193,22.595 104.524,13.488 96,11.977 C79.607,9.07 78.823,32.04 76.424,42.747 C68.499,78.113 79.114,113.44 96.096,144.747 C99.768,151.517 105.05,157.717 112,161.229 C127.61,169.115 147.237,168.847 156.756,185.747 C163.83,198.306 156.722,209.939 155.184,222.747 C153.662,235.425 156.787,248.033 161.464,259.747 C167.174,274.049 177.294,286.625 183.561,300.747 C191.602,318.865 195.935,338.283 203.069,356.747 C213.271,383.152 225.712,407.959 232.157,435.747 C241.088,474.257 239.064,515.419 230.235,553.747 C228.428,561.594 228.547,570.115 225.893,577.747 C219.97,594.778 205.612,597.767 190,598.836 C174.925,599.869 160.027,599.93 145,599.751 C136.824,599.654 128.114,598.979 120,600.036 C80.831,605.139 45.702,624.69 21.211,655.747 C14.591,664.142 9.274,673.127 4.525,682.658 C2.427,686.867 0.31,689.927 0,694.747 C35.277,686.66 70.157,676.16 105,666.492 C126.443,660.543 149.25,656.752 170,648.747 C160.697,665.077 148.576,680.38 137.77,695.747 C120.316,720.568 103.106,745.608 86.113,770.747 C80.471,779.095 73.909,786.93 69,795.747 C78.8,798.644 91.944,797.105 102,795.902 C138.258,791.563 169.142,773.63 191.329,744.461 C205.237,726.177 210.865,703.787 219.062,682.747 C228.789,657.78 240.594,632.808 252.324,608.747 C255.679,601.865 261.737,596.601 266.537,590.747 C275.472,579.851 283.894,568.119 290.688,555.747 C300.069,538.666 308.521,519.591 313.611,500.747 C318.687,481.957 320.103,462.016 322.166,442.747 C324.338,422.461 326.739,404.148 323.701,383.747 C320.199,360.233 305.54,337.314 288.83,321.033 C274.946,307.505 259.175,296.224 247.123,280.747 C237.935,268.948 234.89,245.042 248,234.747 C249.828,240.524 253.453,245.507 256.432,250.747 C263.107,262.489 269.705,279.676 283,285.268 C292.26,289.163 301.449,287.22 311,286.032 C318.109,285.147 325.06,284.649 332,282.758 C345.42,279.102 372.224,276.954 372.733,258.747 C372.914,252.275 367.865,241.951 360,243.365 C355.267,244.216 350.869,248.557 347,251.157 C335.261,259.046 323.577,266.13 309,261.223 C296.244,256.929 292.424,247.166 288.086,235.747 C284.767,227.012 281.505,217.864 279.348,208.751 C278.291,204.285 281.314,202.169 285.001,200.381 C290.943,197.5 298.439,196.395 305,196.836 C322.636,198.023 339.236,211.18 343,228.747 C347.905,229.364 352.108,229.476 357,228.482 C383.811,223.029 381.819,190.303 374.76,170.747 C371.248,161.018 365.222,153.184 356,148.237 C352.254,146.228 348.091,144.22 344,143.048 C341.089,142.214 337.789,142.115 335.329,140.158 C332.015,137.523 329.969,132.594 328.464,128.747 C325.977,122.391 325.194,115.372 327.105,108.747 C329.957,98.861 336.687,90.487 336.985,79.747 C337.446,63.1 329.621,46.73 316.999,35.96 C312.13,31.805 306.066,29.264 301.039,25.348 C290.384,17.047 282.368,7.646 269,3.268 C245.63,-4.387 204.706,-0.015 203.105,31.747 C202.732,39.138 204.846,46.202 208.004,52.747 C209.794,56.458 213.429,60.41 212.874,64.747 C212.358,68.782 210.345,72.694 209.616,76.747 C209.032,79.987 209.457,83.75 207.973,86.747 C203.954,94.864 197.55,100.099 196.209,109.747 C195.466,115.093 197.167,119.668 198.403,124.747 C200.953,135.232 202.423,142.641 215,143.747 z" fill="#FFFFFF"/>
  </g>
</svg>
